<?xml version="1.0" standalone="no"?>
<!DOCTYPE svg PUBLIC "-//W3C//DTD SVG 20010904//EN"
 "http://www.w3.org/TR/2001/REC-SVG-20010904/DTD/svg10.dtd">
<svg version="1.0" xmlns="http://www.w3.org/2000/svg"
 width="144.000000pt" height="144.000000pt" viewBox="0 0 144.000000 144.000000"
 preserveAspectRatio="xMidYMid meet">
<metadata>
Created by potrace 1.15, written by Peter Selinger 2001-2017
</metadata>
<g transform="translate(0.000000,144.000000) scale(0.100000,-0.100000)"
fill="#000000" stroke="none">
<path d="M0 720 l0 -720 720 0 720 0 0 720 0 720 -720 0 -720 0 0 -720z m858
454 c61 -15 77 -16 94 -5 17 11 22 10 29 -1 11 -17 12 -258 1 -258 -5 0 -32
36 -60 79 -79 122 -149 171 -242 171 -92 0 -150 -49 -150 -127 0 -70 40 -103
171 -143 57 -17 133 -43 169 -58 130 -53 189 -151 177 -293 -10 -123 -60 -200
-162 -250 -57 -28 -74 -31 -152 -32 -48 0 -132 8 -187 18 l-98 19 -18 -22
c-10 -12 -21 -22 -23 -22 -9 0 -16 76 -20 203 -2 85 0 117 8 117 7 0 29 -27
49 -60 83 -134 199 -220 299 -220 98 0 157 48 157 129 0 90 -38 124 -189 171
-245 77 -309 135 -319 286 -10 162 62 267 211 309 62 18 151 14 255 -11z"/>
</g>
</svg>
